# xmcd
#
# Track frame offsets:
#	150
#	22415
#	44452
#	64132
#	80317
#	102470
#	113660
#	138857
#	158900
#	175932
#	195812
#
# Disc length: 2805 seconds
#
# Revision: 0
# Processed by: cddbd v1.5PL3 Copyright (c) Steve Scherf et al.
# Submitted via: dBpowerAMP V4.0
#
DISCID=8d0af30b
DTITLE=Chris Pandolfi - The Handoff
DYEAR=2003
DGENRE=Bluegrass
TTITLE0=The Manhattan Handoff
TTITLE1=Jono's Farewell
TTITLE2=Whiskey Field
TTITLE3=Honeydew
TTITLE4=Outside Livingston
TTITLE5=Lady Joyce
TTITLE6=Critology
TTITLE7=Galax
TTITLE8=Costa Brava
TTITLE9=Sir Francis
TTITLE10=Ritter City
EXTD=
EXTT0=
EXTT1=
EXTT2=
EXTT3=
EXTT4=
EXTT5=
EXTT6=
EXTT7=
EXTT8=
EXTT9=
EXTT10=
PLAYORDER=
